<?xml version="1.0" encoding="UTF-8"?>
<svg id="Layer_1" xmlns="http://www.w3.org/2000/svg" version="1.1" viewBox="0 0 301.47 30.3">
  <!-- Generator: Adobe Illustrator 30.3.0, SVG Export Plug-In . SVG Version: 2.1.1 Build 126)  -->
  <defs>
    <style>
      .st0 {
        fill: #fff;
      }

      .st1 {
        fill: #0373ff;
      }
    </style>
  </defs>
  <path class="st0" d="M3.67,27.3c-.2-.1-.2-.4-.2-.6V3.6c0-.3,0-.5.2-.6s.4-.2.6-.2h2.8c.5,0,.8.2,1.1.7l6.8,12.8,6.9-12.8c.2-.4.6-.7,1.1-.7h2.8c.3,0,.5,0,.6.2.2.2.2.4.2.6v23.1c0,.3,0,.5-.2.6-.2.2-.4.2-.6.2h-3c-.2,0-.4,0-.6-.2s-.2-.4-.2-.6v-15.4l-5,9.5c-.3.5-.7.8-1.2.8h-1.5c-.5,0-.9-.3-1.2-.8l-5-9.5v15.4c0,.2,0,.4-.2.6s-.4.2-.6.2h-3c-.3,0-.5,0-.6-.2h0Z"/>
  <path class="st0" d="M34.27,25.5c-1.8-1.6-2.7-4-2.8-7.3v-6c0-3.1,1.1-5.6,2.9-7.2,1.8-1.7,4.3-2.5,7.4-2.5s5.6.8,7.5,2.5,2.8,4.1,2.9,7.2v6c-.1,3.2-1.1,5.6-2.9,7.3-1.8,1.6-4.3,2.5-7.5,2.5s-5.7-.8-7.5-2.5ZM45.57,22.4c.9-1,1.4-2.4,1.5-4.4v-5.8c0-2-.6-3.4-1.5-4.4s-2.2-1.4-3.8-1.4-2.8.5-3.8,1.4-1.4,2.4-1.5,4.4v5.8c0,2,.6,3.4,1.5,4.4s2.2,1.4,3.8,1.4,2.8-.5,3.8-1.4h0Z"/>
  <path class="st0" d="M57.07,27.3c-.2-.2-.2-.4-.2-.6V3.6c0-.3,0-.5.2-.6s.4-.2.6-.2h2.7c.3,0,.5,0,.6.2.1.1.3.2.4.4l10.2,15.9V3.7c0-.3,0-.5.2-.6s.4-.2.6-.2h3c.3,0,.5,0,.6.2s.2.4.2.6v23c0,.3,0,.5-.2.6-.2.1-.4.3-.6.3h-2.8c-.4,0-.7-.2-1-.6l-10.2-15.5v15.2c0,.3,0,.5-.2.6-.2.2-.4.2-.6.2h-3c-.2,0-.4,0-.6-.2,0,0,.1,0,.1,0Z"/>
  <path class="st0" d="M82.17,27.3c-.2-.2-.2-.4-.2-.6V3.6c0-.3,0-.5.2-.6s.4-.2.6-.2h3.1c.3,0,.5,0,.6.2s.2.4.2.6v8.3l8-8.6c.3-.4.8-.6,1.4-.6h3.5c.2,0,.4,0,.5.2s.2.3.2.5,0,.3-.1.4l-9.8,10.7,10.4,11.7c.1.1.2.3.2.5s0,.4-.2.5c-.2.1-.3.2-.5.2h-3.6c-.6,0-1.1-.2-1.4-.6l-8.6-9.4v9.2c0,.3,0,.5-.2.6s-.4.2-.6.2h-3.1c-.2,0-.4,0-.6-.2h0v.1h0Z"/>
  <path class="st0" d="M104.57,27.3c-.2-.2-.2-.4-.2-.6V3.6c0-.3,0-.5.2-.6s.4-.2.6-.2h15.6c.3,0,.5,0,.6.2s.2.4.2.6v2.3c0,.3,0,.5-.2.6s-.4.2-.6.2h-11.7v6.3h10.9c.3,0,.5,0,.6.2s.2.4.2.6v2.2c0,.3,0,.5-.2.6s-.4.2-.6.2h-10.9v6.5h11.9c.3,0,.5,0,.6.2.2.2.2.4.2.6v2.3c0,.3,0,.5-.2.6s-.4.2-.6.2h-15.9c-.2,0-.4,0-.6-.2h0l.1.3h0Z"/>
  <path class="st0" d="M133.17,27.3c-.2-.2-.2-.4-.2-.6v-8l-8.4-14.8c0-.1-.1-.2-.1-.4s0-.4.2-.5.3-.2.5-.2h3.2c.3,0,.5,0,.7.2.2.1.3.3.4.5l6,10.3,6-10.3c.3-.4.6-.7,1.1-.7h3.1c.2,0,.4,0,.5.2s.2.3.2.5,0,.3-.1.4l-8.4,14.8v8c0,.2,0,.4-.2.6s-.4.2-.6.2h-3.2c-.2,0-.4,0-.6-.2h-.1,0Z"/>
  <path class="st0" d="M149.07,10.1c-.1-.1-.2-.3-.1-.6l1-6c0-.3.2-.6.4-.8.2-.2.4-.3.8-.3h3.3c.2,0,.3,0,.4.2s.2.3.2.4,0,.3-.1.5l-2.3,5.8c-.1.3-.3.5-.5.7s-.4.2-.7.2h-1.8c-.2,0-.4,0-.5-.2h0l-.1.1h0Z"/>
  <path class="st0" d="M161.57,26.9c-1.5-.6-2.7-1.5-3.4-2.5-.8-1-1.2-2.2-1.2-3.4,0-.2,0-.4.2-.5s.3-.2.5-.2h3.2c.3,0,.5,0,.7.2.1.1.3.3.4.5.2.8.8,1.5,1.6,2s2,.8,3.5.8,2.9-.3,3.8-.8c.9-.6,1.3-1.3,1.3-2.3s-.2-1.2-.7-1.6-1.1-.8-1.9-1.1-2.1-.7-3.9-1.1c-2.8-.7-4.8-1.5-6.1-2.6s-1.9-2.7-1.9-4.7.4-2.6,1.1-3.7c.8-1.1,1.8-1.9,3.2-2.5s3-.9,4.9-.9,3.6.3,5,1c1.4.7,2.5,1.5,3.2,2.6s1.1,2.1,1.2,3.1c0,.2,0,.4-.2.5-.1.1-.3.2-.5.2h-3.3c-.5,0-.8-.2-1-.7-.1-.8-.6-1.4-1.4-1.9-.8-.5-1.8-.8-3-.8s-2.4.2-3.1.7-1.1,1.2-1.1,2.2.2,1.2.6,1.6,1,.8,1.8,1.1,2,.7,3.5,1.1c2.1.5,3.7,1,5,1.6,1.2.6,2.2,1.3,2.8,2.2.6.9.9,2,.9,3.4s-.4,2.8-1.3,4-2,2-3.5,2.6-3.3.9-5.3.9-3.9-.3-5.4-1h-.2Z"/>
  <path class="st1" d="M183.07,25.4c-1.8-1.7-2.7-4-2.9-7.1v-6.3c.1-3,1.1-5.4,2.9-7.1,1.8-1.7,4.3-2.5,7.5-2.5s3.9.4,5.5,1.1c1.6.7,2.8,1.7,3.6,2.9s1.3,2.6,1.4,4.2h0c0,.3,0,.4-.2.5-.1.1-.3.2-.5.2h-3.4c-.3,0-.5,0-.6-.2s-.3-.3-.4-.7c-.4-1.5-1-2.5-1.9-3.1s-2.1-.9-3.5-.9c-3.4,0-5.2,1.9-5.3,5.7v5.9c.1,3.8,1.9,5.7,5.3,5.7s2.6-.3,3.5-.9,1.5-1.6,1.9-3.1c0-.3.2-.6.3-.7s.4-.2.7-.2h3.4c.2,0,.4,0,.6.2.1.1.2.3.2.5,0,1.6-.5,3-1.4,4.2s-2.1,2.2-3.6,2.9c-1.6.7-3.4,1.1-5.5,1.1-3.3,0-5.8-.8-7.6-2.5h0v.2Z"/>
  <path class="st1" d="M205.57,27.3c-.2-.2-.2-.4-.2-.6V3.6c0-.3,0-.5.2-.6s.4-.2.6-.2h3.3c.3,0,.5,0,.6.2s.2.4.2.6v19.8h11.2c.3,0,.5,0,.6.2s.2.4.2.6v2.5c0,.3,0,.5-.2.6-.2.2-.4.2-.6.2h-15.4c-.2,0-.4,0-.6-.2h.1,0Z"/>
  <path class="st1" d="M227.67,25.5c-1.8-1.6-2.7-4-2.8-7.3v-6c0-3.1,1.1-5.6,2.9-7.2s4.3-2.5,7.5-2.5,5.6.8,7.5,2.5,2.8,4.1,2.9,7.2v6c-.1,3.2-1.1,5.6-2.9,7.3-1.8,1.6-4.3,2.5-7.5,2.5s-5.7-.8-7.5-2.5h-.1ZM238.97,22.4c.9-1,1.5-2.4,1.5-4.4v-5.8c0-2-.6-3.4-1.5-4.4-1-1-2.2-1.4-3.8-1.4s-2.8.5-3.8,1.4c-1,1-1.5,2.4-1.5,4.4v5.8c0,2,.6,3.4,1.5,4.4s2.2,1.4,3.8,1.4,2.9-.5,3.8-1.4h0Z"/>
  <path class="st1" d="M252.67,25.5c-1.8-1.6-2.7-4.1-2.7-7.4V3.7c0-.3,0-.5.2-.6.1-.2.4-.2.6-.2h3.2c.3,0,.5,0,.6.2.1.2.2.4.2.6v14.4c0,1.9.5,3.3,1.4,4.3.9,1,2.2,1.4,3.8,1.4s2.9-.5,3.8-1.4,1.3-2.4,1.3-4.3V3.7c0-.3,0-.5.2-.6s.4-.2.6-.2h3.2c.3,0,.5,0,.6.2.1.2.2.4.2.6v14.4c0,3.3-.9,5.8-2.6,7.4s-4.2,2.5-7.4,2.5-5.7-.8-7.5-2.5h.3,0Z"/>
  <path class="st1" d="M275.77,27.3c-.2-.2-.2-.4-.2-.6V3.6c0-.3,0-.5.2-.6.1-.2.4-.2.6-.2h8.6c7,0,10.5,3.2,10.6,9.6v5.5c0,3.3-1,5.8-2.7,7.3s-4.3,2.4-7.8,2.4h-8.8c-.2,0-.4,0-.6-.2h0l.1-.1h0ZM285.07,23.5c2,0,3.4-.4,4.3-1.3s1.3-2.4,1.4-4.4v-5.3c0-1.9-.5-3.4-1.5-4.3s-2.4-1.4-4.4-1.4h-4.4v16.7h4.6Z"/>
</svg>